<?xml version="1.0" standalone="no"?>
<svg xmlns="http://www.w3.org/2000/svg" viewBox="0 0 64.88 35" width="64.88" height="35"><path fill="#fe4e01" fill-rule="nonzero" d="M38.68 25.56L39.28 27.08Q36.68 28.88 34.40 28.88Q32.12 28.88 31.18 27.80Q30.24 26.72 30.24 24.96Q30.24 23.20 32.12 15.90Q34 8.60 34 6.84L34 6.84Q34 4.64 32.44 4.64Q30.88 4.64 28.20 6.96L28.20 6.96Q28.12 7.28 26.88 11.84L26.88 11.84Q24.16 21.84 23.96 27.96L23.96 27.96Q22.40 28.56 18.32 28.56L18.32 28.56L17.80 28.56Q17.80 26.08 19.92 17.12Q22.04 8.16 22.04 6.68L22.04 6.68Q22.04 4.64 20.40 4.64L20.40 4.64Q18.64 4.64 15.80 7.12L15.80 7.12Q15.80 15.28 12.92 22.40L12.92 22.40Q11.56 25.76 9.38 27.86Q7.20 29.96 4.90 29.96Q2.60 29.96 1.30 28.58Q0 27.20 0 24.74Q0 22.28 1.76 18.94Q3.52 15.60 5.50 13.22Q7.48 10.84 9.56 8.92L9.56 8.92Q9.56 5.24 8.68 4.48L8.68 4.48Q8.24 4.12 7.42 4.12Q6.60 4.12 5.02 4.84Q3.44 5.56 2 6.80L2 6.80L1.00 5.40Q2.40 3.68 5.20 2.08Q8 0.48 10.18 0.48Q12.36 0.48 13.62 1.62Q14.88 2.76 15.40 4.52L15.40 4.52Q20.92 0 24.12 0L24.12 0Q25.72 0 26.86 1Q28 2 28.32 4L28.32 4Q33.04 0 36.20 0L36.20 0Q37.96 0 39.18 1.40Q40.40 2.80 40.40 5.18Q40.40 7.56 38.44 14.76Q36.48 21.96 36.48 23.86Q36.48 25.76 37.68 25.76L37.68 25.76Q38.08 25.76 38.68 25.56L38.68 25.56ZM4.12 26.16L4.12 26.16Q5.72 26.16 7.30 22.18Q8.88 18.20 9.44 12.20L9.44 12.20Q6.88 14.84 4.84 18.46Q2.80 22.08 2.80 24.12Q2.80 26.16 4.12 26.16ZM64.88 30.64Q64.28 31.92 62.98 32.98Q61.68 34.04 60.20 34.04Q58.72 34.04 57.30 33.22Q55.88 32.40 55 31.56Q54.12 30.72 52.50 28.96Q50.88 27.20 50.28 26.60L50.28 26.60Q48.16 28.88 45.12 28.88L45.12 28.88Q43.12 28.88 41.84 27.88Q40.56 26.88 40.56 25.22Q40.56 23.56 41.94 22.38Q43.32 21.20 45.64 21.20L45.64 21.20Q46.96 21.20 48.28 21.64L48.28 21.64Q48.68 19.68 48.92 16.08L48.92 16.08Q46.48 15.64 44.94 14.02Q43.40 12.40 43.40 9.52L43.40 9.52Q43.40 8.40 43.76 6.68L43.76 6.68Q44.20 6.60 44.92 6.60Q45.64 6.60 46.40 7.16L46.40 7.16Q45.88 8.12 45.88 9.72L45.88 9.72Q45.88 12.96 49.04 13.72L49.04 13.72Q49.20 9.36 49.52 7.58Q49.84 5.80 50.64 4.18Q51.44 2.56 53.30 1.28Q55.16 0 58.04 0Q60.92 0 62.50 1.70Q64.08 3.40 64.08 5.72L64.08 5.72Q64.08 8.96 61.10 12.26Q58.12 15.56 53.72 16.28L53.72 16.28Q52.48 21.68 51.92 23.60L51.92 23.60Q52.56 24.08 54.26 25.40Q55.96 26.72 56.86 27.34Q57.76 27.96 59.30 28.58Q60.84 29.20 62.28 29.20L62.28 29.20L63.96 29.08Q64.64 30.04 64.88 30.64L64.88 30.64ZM61.40 6.08L61.40 6.08Q61.40 4.88 60.78 4.12Q60.16 3.36 59.12 3.36L59.12 3.36Q56.44 3.36 55.20 9.20L55.20 9.20Q54.52 12.40 54.24 13.84L54.24 13.84Q57.20 13.32 59.30 10.90Q61.40 8.48 61.40 6.08ZM44.76 25.88L44.76 25.88Q46.16 25.88 47.24 24.36L47.24 24.36Q46.08 23.64 44.92 23.64L44.92 23.64Q43.20 23.64 43.20 24.76L43.20 24.76Q43.20 25.32 43.68 25.60Q44.16 25.88 44.76 25.88Z" transform="translate(0 0) scale(1)"></path></svg>